<svg width="455.4" height="242.4240225671339" viewBox="0 0 350.00000000000006 186.3162228776831" class="looka-1j8o68f"><defs id="SvgjsDefs1232"><linearGradient id="SvgjsLinearGradient1239"><stop id="SvgjsStop1240" stop-color="#006838" offset="0"></stop><stop id="SvgjsStop1241" stop-color="#96cf24" offset="1"></stop></linearGradient><linearGradient id="SvgjsLinearGradient1242"><stop id="SvgjsStop1243" stop-color="#006838" offset="0"></stop><stop id="SvgjsStop1244" stop-color="#96cf24" offset="1"></stop></linearGradient><linearGradient id="SvgjsLinearGradient1245"><stop id="SvgjsStop1246" stop-color="#006838" offset="0"></stop><stop id="SvgjsStop1247" stop-color="#96cf24" offset="1"></stop></linearGradient></defs><g id="SvgjsG1233" featurekey="8Idkkj-0" transform="matrix(2.7377971615955725,0,0,2.7377971615955725,-1.4784103628229357,-14.56507875869564)" fill="url(#SvgjsLinearGradient1239)"><path d="M6.72 20 l-2.68 0 l0 -11.6 l-3.5 0 l0 -2.64 l9.68 0 l0 2.64 l-3.5 0 l0 11.6 z M23.4 20 l-2.68 0 l0 -6.9 l-5.78 0 l0 6.9 l-2.68 0 l0 -14.24 l2.68 0 l0 4.72 l5.78 0 l0 -4.72 l2.68 0 l0 14.24 z M35.7 20 l-9.2 0 l0 -14.24 l9.38 0 l0 2.6 l-6.7 0 l0 2.1 l5.84 0 l0 2.66 l-5.84 0 l0 4.24 l6.52 0 l0 2.64 z M47.839999999999996 20 l-2.68 0 l0 -11.6 l-3.5 0 l0 -2.64 l9.68 0 l0 2.64 l-3.5 0 l0 11.6 z M64.83999999999999 20 l-2.88 0 l-1.46 -3.84 l-4.72 0 l-1.48 3.84 l-2.86 0 l5.48 -14.24 l2.42 0 z M56.81999999999999 13.52 l2.64 0 l-1.32 -3.46 z M76.67999999999999 20 l-9.94 0 l0 -14.24 l2.68 0 l0 11.62 l7.26 0 l0 2.62 z M92.27999999999999 20 l-3.34 0 l-5.3 -7.44 l-2.28 2.16 l0 5.28 l-2.66 0 l0 -14.24 l2.66 0 l0 5.34 l5.68 -5.34 l3.84 0 l-5.22 4.94 z M96.96 20 l-2.68 0 l0 -14.24 l2.68 0 l0 14.24 z M112.33999999999999 20 l-2.58 0 l-6.32 -9.34 l0 9.34 l-2.68 0 l0 -14.24 l2.6 0 l6.3 9.32 l0 -9.32 l2.68 0 l0 14.24 z M122.25999999999999 20.22 c-4.1 0 -7.44 -3.34 -7.44 -7.46 c0 -4.1 3.34 -7.44 7.44 -7.44 c1 0 1.98 0.2 2.88 0.58 s1.72 0.92 2.4 1.62 l0.38 0.38 l-1.98 1.74 l-0.34 -0.32 c-0.86 -0.88 -2.04 -1.34 -3.34 -1.34 c-2.64 0 -4.78 2.14 -4.78 4.78 c0 2.66 2.14 4.82 4.78 4.82 c1.34 0 2.56 -0.54 3.5 -1.5 l0 -2.96 l-3.9 0 l0 -2.66 l6.52 0 l0 6.56 l-0.1 0.12 c-1.44 1.94 -3.68 3.08 -6.02 3.08 z"></path></g><g id="SvgjsG1234" featurekey="8Idkkj-1" transform="matrix(6.34057962250945,0,0,6.34057962250945,-9.51087094547616,14.47826294652603)" fill="url(#SvgjsLinearGradient1242)"><path d="M12.64 20 l-2.68 0 l0 -6.9 l-5.78 0 l0 6.9 l-2.68 0 l0 -14.24 l2.68 0 l0 4.72 l5.78 0 l0 -4.72 l2.68 0 l0 14.24 z M27.740000000000002 20 l-2.88 0 l-1.46 -3.84 l-4.72 0 l-1.48 3.84 l-2.86 0 l5.48 -14.24 l2.42 0 z M19.72 13.52 l2.64 0 l-1.32 -3.46 z M41.52 20 l-2.58 0 l-6.32 -9.34 l0 9.34 l-2.68 0 l0 -14.24 l2.6 0 l6.3 9.32 l0 -9.32 l2.68 0 l0 14.24 z M49.4 20 l-4.78 0 l0 -14.24 l4.78 0 c4.02 0 7.3 3.2 7.3 7.12 s-3.28 7.12 -7.3 7.12 z M47.28 17.38 l2.12 0 c2.56 0 4.64 -2.02 4.64 -4.5 s-2.08 -4.5 -4.64 -4.5 l-2.12 0 l0 9 z"></path></g><g id="SvgjsG1235" featurekey="4jp1BL-0" transform="matrix(1.7878687461472953,0,0,1.7878687461472953,33.746079427626164,150.5588479547372)" fill="url(#SvgjsLinearGradient1245)"><path d="M4.34 5.84 l7.8 11.64 l0.04 0 l0 -11.64 l1.92 0 l0 14.16 l-2.44 0 l-7.88 -11.64 l-0.04 0 l0 11.64 l-1.92 0 l0 -14.16 l2.52 0 z M34.128 5.84 l0 1.8 l-7.22 0 l0 4.22 l6.72 0 l0 1.8 l-6.72 0 l0 4.54 l7.58 0 l0 1.8 l-9.5 0 l0 -14.16 l9.14 0 z M44.736000000000004 5.84 l4.16 11.52 l0.04 0 l4.32 -11.52 l2.1 0 l-5.58 14.16 l-1.8 0 l-5.46 -14.16 l2.22 0 z M73.444 5.84 l0 1.8 l-7.22 0 l0 4.22 l6.72 0 l0 1.8 l-6.72 0 l0 4.54 l7.58 0 l0 1.8 l-9.5 0 l0 -14.16 l9.14 0 z M88.852 5.84 c1.3867 0 2.4734 0.34666 3.26 1.04 s1.18 1.6667 1.18 2.92 c0 0.94666 -0.32334 1.7733 -0.97 2.48 s-1.4767 1.1267 -2.49 1.26 l-0.02 0 l4.02 6.46 l-2.4 0 l-3.6 -6.24 l-2.14 0 l0 6.24 l-1.92 0 l0 -14.16 l5.08 0 z M88.292 12.08 c1 0 1.7433 -0.18336 2.23 -0.55002 s0.73 -0.94332 0.73 -1.73 c0 -1.52 -0.98666 -2.28 -2.96 -2.28 l-2.6 0 l0 4.56 l2.6 0 z M117.968 5.84 l0 12.36 l6.5 0 l0 1.8 l-8.42 0 l0 -14.16 l1.92 0 z M135.596 5.84 l0 14.16 l-1.92 0 l0 -14.16 l1.92 0 z M155.624 5.84 l0 1.8 l-7.22 0 l0 4.22 l6.72 0 l0 1.8 l-6.72 0 l0 4.54 l7.58 0 l0 1.8 l-9.5 0 l0 -14.16 l9.14 0 z"></path></g></svg>