<svg width="382.1931518554688" height="177.18350919919732" viewBox="0 0 350 162.25886811067335" class="looka-1j8o68f">
    <defs id="SvgjsDefs6393"></defs>
    <g id="SvgjsG6394" featurekey="JQyOZB-0"
        transform="matrix(1.0937470793802049,0,0,1.0937470793802049,121.00034835562221,0.00047929456994553007)"
        fill="#01ba76">
        <path xmlns="http://www.w3.org/2000/svg" d="M50.29,42.212"></path>
        <path xmlns="http://www.w3.org/2000/svg" d="M50.29,42.212"></path>
        <path xmlns="http://www.w3.org/2000/svg" d="M50.29,42.212"></path>
        <path xmlns="http://www.w3.org/2000/svg"
            d="M95.223,22.145c-5.377,3.135-8.271,4.414-13.844,4.125c-2.098-0.024-3.207-0.917-5.281-0.724  c-1.93,0.072-2.918,0.796-4.849,1.447c-2.966,0.917-4.583,1.737-7.694,2.702c-1.977,0.555-3.23,0.579-5.281,1.278  c-1.76,0.748-0.916,0.145-2.146,1.567c-1.592,1.761-1.206,3.136-2.701,6.15c-1.856,3.956-1.641,4.486-0.579,4.969  c-0.699,2.025-0.867,3.377-0.699,5.571c0.192,1.664-0.506,2.821,1.278,4.147c2.437,1.81,7.55,6.054,8.853,6.125  c1.953-0.071,7.646,0.146,10.539-1.855c0.652-0.41,0.845-0.82,0.289,0.725c-0.119,0.192-7.211,5.715-7.982,5.69  c-5.463,0.176-6.511,0.431-6.611,0.556c-0.628-0.243-4.812-5.237-7.377-3.402c-0.99,0.604-1.448,1.183-1.835,2.269  c0.338,0.699,1.931,1.81,3.4,2.726c2.123,1.352,2.315,2.772,4.438,3.281c2.58,0.577,5.33,0.191,6.969,0.408  c0.629,0.169,6.32-1.495,9.865-3.4c3.28-1.688-4.51,3.256-6.416,5.692c-5.74,1.81-4.123,1.882-6.85,2.437  c-2.532,0.578-2.412,0.434-4.148,0.988c-1.785,0.434-3.256,2.87-1.566,4.147c1.013,0.845,4.173-0.337,7.283-0.435  c1.375-0.022,6.994-2.604,8.272-3.279c3.185-1.713,5.522-4.076,7.404-5.428c2.604-1.807-2.942,4.994-5.282,7.84  c-0.675,0.918-0.988,1.109-1.832,2.291c-1.398,1.811,0.385,4.56,1.277,4.125c1.037-0.385,1.713-2.459,2.846-3.135  c0.58-0.314,2.123-2.582,3.57-4.125c1.061-1.205,1.833-1.736,2.846-2.99c1.713-2.123,2.074-3.738,3.57-6.006  c0.916-1.183,1.566-1.543,2.41-2.99c4.463-8.441,3.16-12.229,7.43-18.258c1.303-1.785,2.773-2.22,4.848-3.281  C101.566,30.031,95.175,22.169,95.223,22.145z M74.529,44.528c-1.014,3.545-0.916,3.955-2.846,5.281  c-2.34,1.785-2.461,0.434-7.838,3.425c0,0-2.22-2.315-5.717-3.425c0.023,0.049-0.941-4.486-2.846-6.006  c4.533-3.449,4.412-6.366,5.137-6.27c1.616,0.145,4.198,0.965,8.973-0.844C72.143,41.923,75.471,41.657,74.529,44.528z">
        </path>
        <path xmlns="http://www.w3.org/2000/svg"
            d="M47.3,18.863c-2.122-1.423-2.339-2.846-4.438-3.304c-2.58-0.627-5.354-0.241-6.971-0.555  c-0.627-0.072-6.318,1.592-9.84,3.425c-3.328,1.761,4.486-3.184,6.416-5.716c5.716-1.712,4.076-1.785,6.85-2.412  c2.508-0.506,2.387-0.362,4.124-0.868c1.761-0.482,3.256-2.895,1.567-4.269c-1.037-0.772-4.172,0.41-7.26,0.434  C36.35,5.696,30.729,8.277,29.451,9c-3.184,1.664-5.523,4.028-7.404,5.282c-2.629,1.906,2.942-4.872,5.282-7.694  c0.675-0.965,0.989-1.158,1.856-2.291c1.352-1.857-0.41-4.607-1.277-4.269c-1.062,0.482-1.736,2.556-3.016,3.28  c-0.458,0.266-2.002,2.533-3.424,4.125c-1.062,1.158-1.834,1.688-2.847,3.015c-1.736,2.05-2.074,3.666-3.569,5.837  c-0.916,1.302-1.592,1.64-2.412,3.135C8.179,27.813,9.457,31.6,5.212,37.533c-1.302,1.905-2.773,2.315-4.848,3.425  c-1.93,14.037,4.438,21.876,4.413,21.828c5.379-3.062,8.249-4.342,13.845-4.147c2.099,0.12,3.208,1.012,5.282,0.866  c1.93-0.119,2.918-0.844,4.848-1.422c2.967-0.988,4.582-1.81,7.549-2.727c2.123-0.604,3.377-0.627,5.428-1.422  c1.76-0.652,0.916-0.049,2.146-1.424c1.567-1.809,1.205-3.184,2.557-6.127c2.002-4.027,1.784-4.558,0.723-4.992  c0.676-2.074,0.869-3.4,0.699-5.571c-0.217-1.688,0.507-2.87-1.277-4.125c-2.437-1.881-7.55-6.126-8.828-6.15  c-1.978,0.024-7.67-0.193-10.564,1.712c-0.65,0.506-0.844,0.917-0.289-0.555c0.121-0.266,7.212-5.789,7.983-5.861  c5.059-0.108,6.332-0.315,6.573-0.429c0.5,0.013,4.804,5.243,7.417,3.42c0.965-0.651,1.447-1.23,1.857-2.267  C50.364,20.817,48.772,19.708,47.3,18.863z M28.318,35.121c2.315-1.712,2.459-0.362,7.838-3.28c0-0.073,2.219,2.243,5.717,3.28  c-0.024,0.024,0.94,4.558,2.846,6.126c-4.535,3.401-4.414,6.32-5.138,6.271c-1.617-0.193-4.197-1.014-8.972,0.725  c-2.774-5.162-6.078-4.873-5.138-7.864C26.484,36.954,26.364,36.52,28.318,35.121z">
        </path>
    </g>
    <g id="SvgjsG6395" featurekey="SbCDzn-0"
        transform="matrix(1.8100951535747083,0,0,1.8100951535747083,-0.7240390971746382,102.46524330610988)"
        fill="#01ba76">
        <path
            d="M11.88 6.140000000000001 l0 2.66 l-4.18 0 l0 11.2 l-3.12 0 l0 -11.2 l-4.18 0 l0 -2.66 l11.48 0 z M22.240000000000002 6.140000000000001 l3.12 0 l0 13.86 l-3.12 0 l0 -5.88 l-5.24 0 l0 5.88 l-3.12 0 l0 -13.86 l3.12 0 l0 5.3 l5.24 0 l0 -5.3 z M28.560000000000002 20 l0 -13.86 l9.36 0 l0 2.62 l-6.24 0 l0 2.72 l5.54 0 l0 2.56 l-5.54 0 l0 3.34 l6.7 0 l0 2.62 l-9.82 0 z M55.76 6.140000000000001 l0 2.66 l-4.18 0 l0 11.2 l-3.12 0 l0 -11.2 l-4.18 0 l0 -2.66 l11.48 0 z M67.03999999999999 20 q-0.22 -0.72 -0.49 -1.48 t-0.53 -1.52 l-5.4 0 q-0.26 0.76 -0.53 1.52 t-0.49 1.48 l-3.24 0 q0.78 -2.24 1.48 -4.14 t1.37 -3.58 t1.32 -3.19 t1.35 -2.95 l2.98 0 q0.68 1.44 1.34 2.95 t1.33 3.19 t1.37 3.58 t1.48 4.14 l-3.34 0 z M63.3 9.28 q-0.1 0.3 -0.3 0.82 t-0.46 1.2 t-0.57 1.5 t-0.63 1.72 l3.94 0 q-0.32 -0.9 -0.62 -1.72 t-0.57 -1.5 t-0.47 -1.2 t-0.32 -0.82 z M81.44 17.32 l0 2.68 l-9.26 0 l0 -13.86 l3.12 0 l0 11.18 l6.14 0 z M91.62 20 q-0.42 -0.68 -0.99 -1.47 t-1.24 -1.58 t-1.39 -1.52 t-1.44 -1.29 l0 5.86 l-3.12 0 l0 -13.86 l3.12 0 l0 5.24 q1.22 -1.28 2.45 -2.67 t2.29 -2.57 l3.7 0 q-1.42 1.68 -2.85 3.24 t-3.01 3.14 q1.66 1.38 3.21 3.28 t2.97 4.2 l-3.7 0 z M97.12 6.140000000000001 l3.12 0 l0 13.86 l-3.12 0 l0 -13.86 z M112.74000000000001 20 q-1.34 -2.38 -2.9 -4.7 t-3.32 -4.38 l0 9.08 l-3.08 0 l0 -13.86 l2.54 0 q0.66 0.66 1.46 1.62 t1.63 2.05 t1.65 2.26 t1.54 2.25 l0 -8.18 l3.1 0 l0 13.86 l-2.62 0 z M125.32000000000001 8.54 q-2.18 0 -3.15 1.21 t-0.97 3.31 q0 1.02 0.24 1.85 t0.72 1.43 t1.2 0.93 t1.68 0.33 q0.52 0 0.89 -0.02 t0.65 -0.08 l0 -4.82 l3.12 0 l0 6.86 q-0.56 0.22 -1.8 0.47 t-3.06 0.25 q-1.56 0 -2.83 -0.48 t-2.17 -1.4 t-1.39 -2.26 t-0.49 -3.06 q0 -1.74 0.54 -3.08 t1.48 -2.27 t2.21 -1.41 t2.71 -0.48 q0.98 0 1.77 0.13 t1.36 0.3 t0.94 0.35 t0.53 0.28 l-0.9 2.5 q-0.64 -0.34 -1.47 -0.59 t-1.81 -0.25 z M145.76000000000002 6.140000000000001 l3.12 0 l0 13.86 l-3.12 0 l0 -5.88 l-5.24 0 l0 5.88 l-3.12 0 l0 -13.86 l3.12 0 l0 5.3 l5.24 0 l0 -5.3 z M161.36 20 q-0.22 -0.72 -0.49 -1.48 t-0.53 -1.52 l-5.4 0 q-0.26 0.76 -0.53 1.52 t-0.49 1.48 l-3.24 0 q0.78 -2.24 1.48 -4.14 t1.37 -3.58 t1.32 -3.19 t1.35 -2.95 l2.98 0 q0.68 1.44 1.34 2.95 t1.33 3.19 t1.37 3.58 t1.48 4.14 l-3.34 0 z M157.62 9.28 q-0.1 0.3 -0.3 0.82 t-0.46 1.2 t-0.57 1.5 t-0.63 1.72 l3.94 0 q-0.32 -0.9 -0.62 -1.72 t-0.57 -1.5 t-0.47 -1.2 t-0.32 -0.82 z M175.8 20 q-1.34 -2.38 -2.9 -4.7 t-3.32 -4.38 l0 9.08 l-3.08 0 l0 -13.86 l2.54 0 q0.66 0.66 1.46 1.62 t1.63 2.05 t1.65 2.26 t1.54 2.25 l0 -8.18 l3.1 0 l0 13.86 l-2.62 0 z M184.74 17.46 q0.22 0.02 0.51 0.03 t0.69 0.01 q2.34 0 3.47 -1.18 t1.13 -3.26 q0 -2.18 -1.08 -3.3 t-3.42 -1.12 q-0.32 0 -0.66 0.01 t-0.64 0.05 l0 8.76 z M193.76000000000002 13.059999999999999 q0 1.8 -0.56 3.14 t-1.59 2.22 t-2.51 1.32 t-3.32 0.44 q-0.84 0 -1.96 -0.07 t-2.2 -0.29 l0 -13.5 q1.08 -0.2 2.25 -0.27 t2.01 -0.07 q1.78 0 3.23 0.4 t2.49 1.26 t1.6 2.2 t0.56 3.22 z">
        </path>
    </g>
    <g id="SvgjsG6396" featurekey="m0CQaI-0"
        transform="matrix(0.8665926761688837,0,0,0.8665926761688837,104.70011088244078,144.19907660708228)"
        fill="#01ba76">
        <path
            d="M2.9 9.98 l0 10.02 l-1.4 0 l0 -14.46 l7.64 10.86 l0 -10 l1.4 0 l0 14.44 z M31.016 20 l-8.08 0 l0 -13.6 l8.08 0 l0 1.3 l-6.68 0 l0 4.84 l6.48 0 l0 1.32 l-6.48 0 l0 4.84 l6.68 0 l0 1.3 z M48.292 20.82 l-6.18 -14.42 l1.52 0 l4.66 10.96 l4.64 -10.96 l1.52 0 z M73.628 20 l-8.08 0 l0 -13.6 l8.08 0 l0 1.3 l-6.68 0 l0 4.84 l6.48 0 l0 1.32 l-6.48 0 l0 4.84 l6.68 0 l0 1.3 z M87.424 13.280000000000001 l3.16 0 c0.78806 0 1.4347 -0.26666 1.94 -0.8 c0.52 -0.54888 0.78 -1.2194 0.78 -2.0116 s-0.24666 -1.445 -0.74 -1.9583 s-1.1533 -0.77 -1.98 -0.77 l-3.16 0 l0 5.54 z M94.70400000000001 10.5 c0 1.1907 -0.42334 2.1808 -1.27 2.97 c-0.74118 0.69092 -1.6401 1.0705 -2.6968 1.1388 l4.1868 5.3912 l-1.88 0 l-3.9874 -5.38 l-1.6327 0 l0 5.38 l-1.4 0 l0 -13.6 l4.36 0 c1.2109 0 2.2276 0.38334 3.05 1.15 c0.84666 0.78926 1.27 1.7726 1.27 2.95 z M122.49600000000001 18.6 l4.86 0 l0 1.4 l-4.86 0 l-0.7 0 l-0.7 0 l0 -13.6 l1.4 0 l0 12.2 z M140.052 20 l-1.4 0 l0 -13.6 l1.4 0 l0 13.6 z M160.528 20 l-8.08 0 l0 -13.6 l8.08 0 l0 1.3 l-6.68 0 l0 4.84 l6.48 0 l0 1.32 l-6.48 0 l0 4.84 l6.68 0 l0 1.3 z">
        </path>
    </g>
</svg>